<svg xmlns="http://www.w3.org/2000/svg" viewBox="0 0 1200 630" width="1200" height="630">
  <defs>
    <linearGradient id="bg" x1="0" y1="0" x2="1" y2="1">
      <stop offset="0%" stop-color="#071c17"/>
      <stop offset="100%" stop-color="#172420"/>
    </linearGradient>
    <radialGradient id="glow" cx="50%" cy="35%" r="55%">
      <stop offset="0%" stop-color="#79dfbf" stop-opacity="0.32"/>
      <stop offset="60%" stop-color="#79dfbf" stop-opacity="0.04"/>
      <stop offset="100%" stop-color="#79dfbf" stop-opacity="0"/>
    </radialGradient>
    <linearGradient id="logo" x1="0" y1="0" x2="1" y2="1">
      <stop offset="0%" stop-color="#218263"/>
      <stop offset="100%" stop-color="#17664f"/>
    </linearGradient>
  </defs>
  <rect width="1200" height="630" fill="url(#bg)"/>
  <rect width="1200" height="630" fill="url(#glow)"/>
  <g transform="translate(96 96)">
    <rect width="80" height="80" rx="18" fill="url(#logo)"/>
    <path d="M28 47V29h14M52 47V29H38M28 49v14h14M52 49v14H38" fill="none" stroke="#b9f3df" stroke-width="5" stroke-linecap="round" stroke-linejoin="round"/>
    <path d="M18 40h18M42 40h18" stroke="#b9f3df" stroke-width="4" stroke-linecap="round"/>
    <circle cx="14" cy="40" r="4" fill="#fff"/><circle cx="66" cy="40" r="4" fill="#fff"/>
    <path d="M40 20v40" stroke="#17664f" stroke-width="12" stroke-linecap="round"/><path d="M40 24v32" stroke="#fff" stroke-width="4" stroke-linecap="round"/>
  </g>
  <text x="96" y="380" font-family="ui-sans-serif, system-ui, -apple-system, Segoe UI, Roboto, Helvetica, Arial, sans-serif" font-size="72" font-weight="600" fill="#FAFAF7" letter-spacing="-2">AgentGuard</text>
  <text x="96" y="438" font-family="ui-sans-serif, system-ui, -apple-system, Segoe UI, Roboto, Helvetica, Arial, sans-serif" font-size="28" font-weight="400" fill="#b9f3df">A clear boundary between agent intent and execution.</text>
  <g transform="translate(96 500)">
    <rect width="190" height="44" rx="22" fill="#79dfbf"/>
    <text x="95" y="29" text-anchor="middle" font-family="ui-sans-serif, system-ui, -apple-system, Segoe UI, Roboto, Helvetica, Arial, sans-serif" font-size="16" font-weight="500" fill="#071c17">Get started</text>
  </g>
  <g transform="translate(304 500)">
    <rect width="220" height="44" rx="22" fill="none" stroke="#FFFFFF" stroke-opacity="0.18"/>
    <text x="110" y="29" text-anchor="middle" font-family="ui-sans-serif, system-ui, -apple-system, Segoe UI, Roboto, Helvetica, Arial, sans-serif" font-size="16" font-weight="500" fill="#FAFAF7">View on GitHub</text>
  </g>
</svg>
